<?xml version="1.0"?><svg xmlns="http://www.w3.org/2000/svg"  viewBox="0 0 128 128" width="128px" height="128px">    <path d="M 106.90039 9.9003906 C 105.20039 9.9003906 103.50078 10.7 102.30078 12 L 96.599609 18.400391 C 95.499609 19.600391 95.600781 21.499609 96.800781 22.599609 C 98.000781 23.699609 99.9 23.600391 101 22.400391 L 106.69922 16.099609 C 106.79922 15.999609 106.9 16 107 16 C 107.1 16 107.20078 15.999609 107.30078 16.099609 L 111.80078 20.599609 C 111.90078 20.699609 111.90039 20.800391 111.90039 20.900391 C 111.90039 21.000391 111.90078 21.099219 111.80078 21.199219 L 101.69922 30.300781 C 101.59922 30.400781 101.39922 30.400781 101.19922 30.300781 C 100.99922 30.100781 100.79961 30.000781 100.59961 29.800781 L 96.699219 25.900391 C 95.499219 24.700391 93.6 24.700391 92.5 25.900391 L 68.5 49.599609 C 65.1 47.099609 60.900781 45.699219 56.800781 45.699219 C 51.800781 45.699219 47.099219 47.599609 43.699219 51.099609 C 42.999219 51.799609 42.299219 52.6 41.699219 53.5 C 38.699219 57.6 34.100781 60.599219 28.300781 62.199219 C 23.600781 63.499219 19.199219 66.099609 15.699219 69.599609 C 6.9992188 78.299609 6.2007813 92.300391 13.800781 102.90039 C 16.900781 107.20039 20.500391 110.8 24.400391 113.5 C 34.900391 123.8 53.899609 126.2 64.099609 116 C 67.299609 112.8 69.399609 109 70.599609 105 C 72.399609 98.9 75.699219 93.399609 80.699219 89.599609 C 81.399219 89.099609 82.099219 88.500391 82.699219 87.900391 C 92.799219 76.600391 84.599609 65.8 78.099609 59.5 L 101.40039 36.199219 C 102.90039 36.199219 104.39961 35.699609 105.59961 34.599609 L 115.69922 25.5 C 116.99922 24.3 117.80078 22.700391 117.80078 20.900391 C 118.00078 19.200391 117.29961 17.500781 116.09961 16.300781 L 111.59961 11.800781 C 110.39961 10.600781 108.70039 9.9003906 106.90039 9.9003906 z M 94.5 32.099609 L 95.800781 33.400391 L 63.400391 65.800781 L 60 62.400391 C 58.8 61.200391 56.900781 61.200391 55.800781 62.400391 C 54.600781 63.600391 54.600781 65.499609 55.800781 66.599609 L 61.300781 72.099609 C 61.900781 72.699609 62.700391 73 63.400391 73 C 64.100391 73 64.9 72.699609 65.5 72.099609 L 73.800781 63.800781 C 75.200781 66.200781 76.099219 68.499219 76.199219 70.699219 C 76.399219 73.999219 75.199609 76.999219 72.599609 79.699219 C 72.099609 80.199219 71.500391 80.699219 70.900391 81.199219 C 65.700391 85.099219 61.800781 90.999219 59.800781 98.199219 C 58.700781 101.89922 56.8 105.20039 54 107.90039 C 50.3 111.60039 46.100391 113.40039 41.400391 113.40039 C 33.500391 113.40039 25.099219 108.20039 18.699219 99.400391 C 12.799219 91.200391 13.300391 80.400781 19.900391 73.800781 C 22.700391 71.000781 26.100391 69 29.900391 68 C 37.000391 66 42.7 62.199609 46.5 57.099609 C 46.9 56.499609 47.4 55.900391 48 55.400391 C 50.3 53.100391 53.400781 51.800781 56.800781 51.800781 C 59.700781 51.800781 62.6 52.8 65 54.5 C 65.6 54.9 66.099609 55.300781 66.599609 55.800781 C 67.799609 57.000781 69.9 56.799609 71 55.599609 L 94.5 32.099609 z M 50.400391 69.699219 A 7.8000002 7.8000002 0 0 0 42.599609 77.5 A 7.8000002 7.8000002 0 0 0 50.400391 85.300781 A 7.8000002 7.8000002 0 0 0 58.199219 77.5 A 7.8000002 7.8000002 0 0 0 50.400391 69.699219 z M 37.863281 81.5 C 37.100781 81.5 36.350781 81.800391 35.800781 82.400391 C 34.600781 83.600391 34.600781 85.499609 35.800781 86.599609 L 41.300781 92.099609 C 41.900781 92.699609 42.700391 93 43.400391 93 C 44.100391 93 44.9 92.699609 45.5 92.099609 C 46.7 90.899609 46.7 89.000391 45.5 87.900391 L 40 82.400391 C 39.4 81.800391 38.625781 81.5 37.863281 81.5 z"/></svg>