<svg xmlns="http://www.w3.org/2000/svg"  viewBox="0 0 48 48" width="144px" height="144px" fill-rule="evenodd" clip-rule="evenodd" baseProfile="basic"><path fill-rule="evenodd" d="M-0.001,1.999c0-0.551,0.448-1,1-1h46	c0.551,0,1,0.449,1,1c0,0.552-0.449,1-1,1h-46C0.447,2.999-0.001,2.551-0.001,1.999z" clip-rule="evenodd"/><path fill-rule="evenodd" d="M-0.001,12.999c0-0.551,0.448-1,1-1	h46c0.551,0,1,0.449,1,1c0,0.552-0.449,1-1,1h-46C0.447,13.999-0.001,13.551-0.001,12.999z" clip-rule="evenodd"/><path fill-rule="evenodd" d="M-0.001,23.999c0-0.551,0.448-1,1-1	h46c0.551,0,1,0.449,1,1c0,0.552-0.449,1-1,1h-46C0.447,24.999-0.001,24.551-0.001,23.999z" clip-rule="evenodd"/><path fill-rule="evenodd" d="M-0.001,34.999c0-0.551,0.448-1,1-1	h46c0.551,0,1,0.449,1,1c0,0.552-0.449,1-1,1h-46C0.447,35.999-0.001,35.551-0.001,34.999z" clip-rule="evenodd"/><path fill-rule="evenodd" d="M-0.001,45.998c0-0.551,0.448-1,1-1	h46c0.551,0,1,0.449,1,1c0,0.552-0.449,1-1,1h-46C0.447,46.998-0.001,46.55-0.001,45.998z" clip-rule="evenodd"/><path d="M32.182,11.885c-2.245-1.256-4.184-2.339-4.184-3.887c0-0.552-0.448-1-1-1h-4	c-0.552,0-1,0.448-1,1v1.999v19.749c-1.253-0.493-2.611-0.749-4-0.749c-5.513,0-9.999,3.999-9.999,7c0,0.337,0,1.661,0,2	c0,4.961,4.485,8.999,9.999,8.999c5.515,0,10-4.037,10-8.999V19.143c1.725,0.432,4.365,1.801,4.897,4.041	c-0.387,2.52-1.776,5.332-1.792,5.365c-0.071,0.141-0.105,0.305-0.105,0.447c0,0.141,0,1.792,0,2s0.101,0.515,0.293,0.707l1.999,2	c0.376,0.375,1.04,0.375,1.415,0c0.216-0.216,5.293-5.365,5.293-11.707c0-0.349,0-1.665,0-2	C39.998,14.254,35.665,13.831,32.182,11.885z"/><path fill="#fff" d="M26.998,5.998h-2h-2v23.348c-1.429-0.852-3.149-1.349-5-1.349	c-4.971,0-8.999,3.581-8.999,8c0,4.417,4.028,7.999,8.999,7.999s9-3.581,9-7.999v-20c2,0,7,2,7,6c0,3-2,7-2,7l2,2c0,0,5-5,5-11	C38.998,10.997,26.998,10.997,26.998,5.998z"/><path fill-rule="evenodd" d="M7.999,35.997	c0-5.077,4.589-9,9.999-9c1.015,0,1.996,0.137,2.921,0.392l1.079,0.375V5.998c0-0.551,0.448-1,1-1h4c0.551,0,1,0.449,1,1	c0,1.851,2.693,2.997,5.503,4.636c3.04,1.772,6.497,4.28,6.497,9.363c0,6.456-5.308,11.723-5.293,11.708	c-0.391,0.391-1.024,0.391-1.415,0l-2-2c-0.304-0.304-0.38-0.769-0.187-1.155c0.028-0.057,1.895-3.828,1.895-6.553	c0-2.404-2.392-4.015-4.325-4.669l-0.675-0.181v18.851c0,5.077-4.592,8.999-10,8.999C12.589,44.995,7.999,41.074,7.999,35.997z M25.998,35.997v-20c0-0.551,0.448-1,1-1c2.287,0,8,2.184,8,7c0,2.464-1.197,5.444-1.792,6.777l0.751,0.769l0.075-0.088	c1.327-1.597,3.967-5.299,3.967-9.459c0-7.865-10.548-8.061-11.865-12.953l-0.007-0.045h-2.128v22.348	c0,0.775-0.848,1.256-1.513,0.86c-1.273-0.76-2.816-1.209-4.487-1.209c-4.533,0-7.999,3.241-7.999,7	c0,3.759,3.465,6.999,7.999,6.999C22.53,42.995,25.998,39.755,25.998,35.997z" clip-rule="evenodd"/></svg>