<?xml version="1.0"?><svg xmlns="http://www.w3.org/2000/svg"  viewBox="0 0 128 128" width="128px" height="128px">    <path d="M 24 18.5 C 16.8 18.5 11 24.3 11 31.5 L 11 99 L 11 114 C 11 121.2 16.8 127 24 127 L 104 127 C 111.2 127 117 121.2 117 114 L 117 99 L 117 31.5 C 117 24.3 111.2 18.5 104 18.5 L 24 18.5 z M 24 24.5 L 30.099609 24.5 L 30.099609 66.5 C 30.099609 69.3 32.299609 71.5 35.099609 71.5 L 36.099609 71.5 L 36.099609 106 L 24 106 C 20.1 106 17 102.9 17 99 L 17 31.5 C 17 27.6 20.1 24.5 24 24.5 z M 48.099609 24.5 L 55.099609 24.5 L 55.099609 66.5 C 55.099609 69.3 57.299609 71.5 60.099609 71.5 L 61.099609 71.5 L 61.099609 106 L 42.099609 106 L 42.099609 71.5 L 43.099609 71.5 C 45.899609 71.5 48.099609 69.3 48.099609 66.5 L 48.099609 24.5 z M 73.099609 24.5 L 80.099609 24.5 L 80.099609 66.5 C 80.099609 69.3 82.299609 71.5 85.099609 71.5 L 86.099609 71.5 L 86.099609 106 L 67.099609 106 L 67.099609 71.5 L 68.099609 71.5 C 70.899609 71.5 73.099609 69.3 73.099609 66.5 L 73.099609 24.5 z M 98.099609 24.5 L 104 24.5 C 107.9 24.5 111 27.6 111 31.5 L 111 99 C 111 102.9 107.9 106 104 106 L 92.099609 106 L 92.099609 71.5 L 93.099609 71.5 C 95.899609 71.5 98.099609 69.3 98.099609 66.5 L 98.099609 24.5 z"/></svg>